<svg width="239" height="240" viewBox="0 0 239 240" fill="none" xmlns="http://www.w3.org/2000/svg">
<path d="M87.3042 131.445C83.2902 125.088 84.8958 116.746 90.6377 111.887C95.856 107.463 105.245 103.196 121.721 104.363C153.659 106.644 152.001 151.649 128.771 156.769C105.542 161.89 115.089 137.576 99.329 137.524C93.0287 137.506 89.3985 134.755 87.3042 131.445Z" fill="#FBB983"/>
<path d="M179.314 27.2772C175.3 20.9201 176.906 12.5776 182.648 7.71839C187.883 3.31201 197.273 -0.972463 213.748 0.194446C245.686 2.47601 244.028 47.4804 220.799 52.6008C197.569 57.7213 207.116 33.3904 191.356 33.3555C185.056 33.3381 181.408 30.5863 179.314 27.2772Z" fill="#FBB983"/>
<path d="M111.476 213.965C107.462 207.608 109.068 199.266 114.81 194.406C120.028 189.982 129.417 185.698 145.892 186.882C177.831 189.164 176.173 234.168 152.943 239.289C129.714 244.409 139.261 220.078 123.501 220.043C117.183 220.026 113.553 217.274 111.476 213.965Z" fill="#FBB983"/>
<path d="M96.5542 53.9245C92.5402 47.5675 94.1458 39.2249 99.8877 34.3657C105.106 29.9419 114.495 25.6749 130.971 26.8418C162.909 29.1233 161.251 74.1277 138.021 79.2482C114.792 84.3686 124.339 60.0377 108.579 60.0029C102.279 60.0029 98.6311 57.2336 96.5542 53.9245Z" fill="#FBB983"/>
<path d="M172.368 116.676C168.354 110.319 169.959 101.977 175.701 97.1174C180.919 92.6936 190.309 88.4266 206.784 89.5935C238.722 91.875 237.064 136.879 213.835 142C190.606 147.12 200.152 122.789 184.393 122.755C178.092 122.755 174.462 119.985 172.368 116.676Z" fill="#FBB983"/>
<path d="M2.22317 158.11C-1.79091 151.753 -0.185269 143.411 5.55661 138.552C10.7749 134.128 20.1644 129.861 36.6396 131.028C68.5777 133.309 66.9197 178.313 43.6904 183.434C20.4611 188.554 30.0076 164.223 14.248 164.189C7.9476 164.171 4.31748 161.402 2.22317 158.11Z" fill="#FBB983"/>
</svg>
