<svg width="726" height="808" viewBox="0 0 726 808" fill="none" xmlns="http://www.w3.org/2000/svg">
<g opacity="0.36">
<path d="M719.842 489.675C719.842 489.675 713.707 486.559 710.646 484.966C703.884 481.455 697.408 477.153 690.29 474.607C682.1 471.688 673.397 470.041 664.806 468.498C663.283 468.226 660.15 470.844 659.543 472.701C654.963 486.788 652.088 501.563 646.241 515.078C639.333 531.072 631.12 546.788 621.453 561.259C601.957 590.437 570.224 603.089 540.289 617.777C527.18 624.206 513.805 630.144 500.27 635.628C496.494 637.16 488.655 637.668 487.975 636.205C486.059 632.058 485.258 625.997 486.926 621.846C495.43 600.611 504.044 579.352 514.142 558.848C524.666 537.501 536.202 516.563 548.637 496.263C560.5 476.896 578.841 464.545 600.555 458.958C611.717 456.09 623.947 457.207 635.708 456.805C646.519 456.442 657.343 456.494 667.024 456.367C664.746 454.419 660.71 451.196 656.949 447.675C644.939 436.434 633.023 425.09 621.088 413.745C618.03 410.831 615.022 409.024 610.577 411.334C598.167 417.776 584.755 417.74 571.213 417.094C543.883 415.796 518.076 406.923 491.557 401.58C482.744 399.806 473.678 398.926 464.679 398.395C454.765 397.817 450.908 402.265 452.786 411.986C455.231 424.685 458.406 437.241 461.071 449.893C466.922 477.64 465.98 505.565 458.69 532.572C447.863 572.595 430.74 610.202 407.029 644.349C393.704 663.557 379.764 682.509 364.351 700.047C352.547 713.486 338.063 724.607 324.585 736.53C322.623 738.264 319.617 738.985 316.967 739.708C312.369 740.961 308.904 739.206 308.121 734.448C307.259 729.222 306.986 723.885 306.819 718.584C305.835 686.185 311.244 654.462 318.425 623.145C321.438 609.977 326.627 596.728 333.588 585.168C348.356 560.631 365.131 537.315 380.709 513.253C392.665 494.789 404.041 475.963 415.656 457.281C416.138 456.501 416.402 455.58 416.77 454.734C423.045 439.875 418.998 431.4 403.436 426.048C381.553 418.525 359.18 417.664 336.967 422.855C323.438 426.009 310.489 431.757 297.405 436.657C289.615 439.577 281.906 442.779 274.445 446.45C248.254 459.338 222.15 472.41 196.062 485.542C172.196 497.548 148.42 509.847 120.848 510.715C109.109 511.08 97.9252 508.685 89.6486 499.799C78.4375 487.759 77.2753 472.663 81.8826 458.124C87.8614 439.268 99.778 423.684 114.69 410.586C126.033 400.623 139.026 393.2 153.606 389.824C172.041 385.553 190.74 382.109 209.515 379.695C228.309 377.283 247.304 376.255 266.239 375.224C277.461 374.61 288.778 374.673 299.998 375.363C315.102 376.284 329.41 372.832 343.821 369.308C349.673 367.876 349.915 364.594 348.226 359.968C344.016 348.364 336.424 342.778 323.429 342.077C297.466 340.686 272.865 333.053 250.1 320.471C237.681 313.607 228.14 303.458 222.098 290.348C215.797 276.63 222.461 265.555 237.461 265.937C243.492 266.095 249.85 267.508 255.378 269.896C278.454 279.842 297.148 296.524 316.937 311.438C324.332 317.012 331.168 323.32 338.455 329.045C340.555 330.687 343.285 332.199 345.856 332.438C364.09 334.147 382.365 335.522 400.634 336.976C401.489 337.039 402.364 336.768 403.23 336.654C403.489 335.979 403.746 335.324 404.005 334.649C396.312 330.863 388.388 327.468 380.972 323.195C365.36 314.188 349.587 305.378 334.747 295.204C324.111 287.918 313.974 279.429 305.207 270.009C280.851 243.844 262.788 214.202 260.2 177.4C259.646 169.577 264.471 163.511 270.851 159.773C277.436 155.909 284.982 156.626 291.418 160.462C297.358 164.01 302.996 168.31 308.013 173.064C328.25 192.251 348.12 212.095 361.628 236.686C375.214 261.43 386.616 287.36 399.201 312.654C401.089 316.453 403.511 320.878 406.932 322.878C434.32 338.927 461.714 355.045 489.769 369.891C502.129 376.436 513.158 384.378 523.385 393.494C532.404 401.538 543.638 402.643 554.319 404.532C566.095 406.608 578.276 406.765 590.304 406.833C594.773 406.865 599.257 404.262 603.736 402.853C600.748 399.597 598.166 395.853 594.728 393.181C573.752 376.86 549.802 364.283 532.658 343.128C516.495 323.189 502.849 301.639 492.311 278.349C484.015 260.015 476.516 241.237 470.191 222.148C463.867 203.039 458.796 183.455 454.321 163.809C449.399 142.142 445.081 120.276 441.894 98.3019C440.358 87.6838 441.282 76.5281 442.488 65.7748C443.503 56.6582 452.877 51.4282 461.952 53.9184C478.337 58.4137 492.292 67.7325 506.004 77.3028C517.039 84.9986 528.564 92.261 538.43 101.305C555.874 117.287 571.247 134.818 581.726 156.822C590.718 175.712 590.615 195.497 592.75 215.145C595.073 236.393 600.974 256.434 609.537 275.89C621.391 302.796 633.243 329.741 638.331 358.98C639.04 363.022 638.874 367.315 638.453 371.425C637.311 382.587 640.307 394.184 634.571 404.942C633.723 406.527 635.13 410.603 636.789 412.039C658.402 430.827 678.038 452.068 702.888 466.863C711.609 472.066 734.628 469.426 730.218 480.51C728.219 485.533 719.842 489.675 719.842 489.675ZM351.916 344.621C353.85 349.273 355.124 352.461 356.49 355.606C361.413 366.86 358.856 372.633 347.359 377.247C322.503 387.208 296.236 388.523 270.125 388.101C237.525 387.57 205.312 390.064 173.522 396.593C160.496 399.265 147.034 403.086 135.607 409.609C114.102 421.891 98.1613 439.989 91.9344 464.791C87.6041 482.042 92.2828 499.499 115.232 499.646C124.369 499.702 133.902 498.608 142.553 495.82C156.601 491.296 170.43 485.682 183.71 479.215C203.715 469.485 222.767 457.751 242.953 448.456C268.613 436.65 294.691 425.591 321.201 415.861C336.612 410.208 352.923 406.436 369.839 407.115C384.834 407.723 399.646 408.903 412.556 417.397C422.829 424.166 434.253 430.998 431.822 445.939C430.615 453.346 428.215 461.212 424.132 467.403C405.163 496.209 385.718 524.709 365.83 552.895C353.857 569.868 344.029 587.921 337.07 607.308C324.368 642.684 319.383 679.685 316.482 716.985C316.283 719.578 316.742 722.222 316.967 726.412C320.513 724.135 323.011 722.988 324.907 721.221C331.496 715.047 337.752 708.518 344.368 702.376C370.425 678.206 391.423 649.803 409.758 619.773C422.108 599.547 430.453 576.89 440.664 555.356C449.434 536.861 453.715 517.367 453.701 496.923C453.687 478.414 454.115 459.943 448.818 441.786C446.048 432.276 445.81 422.035 443.132 412.481C439.159 398.305 451.115 389.623 462.069 389.338C470.601 389.11 479.172 389.851 487.702 390.462C492.252 390.794 496.761 391.776 501.289 392.463C501.486 391.824 501.684 391.185 501.872 390.535C492.171 384.729 482.526 378.837 472.77 373.136C455.181 362.88 437.54 352.67 419.796 342.681C418.127 341.738 415.392 342.071 413.33 342.535C409.145 343.498 405.084 345.969 400.944 346.037C389.869 346.206 378.764 345.415 367.664 345.03C362.718 344.88 357.779 344.779 351.916 344.621ZM540.865 335.674C541.222 335.488 541.578 335.323 541.935 335.138C546.268 339.307 550.267 343.919 554.996 347.589C576.398 364.203 598.014 380.534 619.545 396.977C623.146 399.729 625.316 398.63 625.468 394.405C625.915 382.183 628.663 369.305 625.816 357.855C620.347 335.926 612.998 314.227 603.94 293.516C591.277 264.516 581.728 235.108 580.996 203.268C580.279 171.804 565.855 146.238 545.024 124.212C535.267 113.881 523.351 105.42 511.713 97.1041C497.607 87.0257 482.813 77.8717 468.166 68.5689C465.516 66.8935 462.178 65.9551 459.038 65.493C454.921 64.8713 452.384 66.7961 452.543 71.4157C452.681 75.5898 452.033 79.863 452.761 83.906C457.701 111.694 461.709 139.711 468.282 167.117C478.119 208.171 490.211 248.684 510.674 285.988C519.971 302.973 530.74 319.141 540.865 335.674ZM496.083 626.049C499.129 625.479 500.302 625.502 501.229 625.037C527.586 611.537 554.237 598.539 580.161 584.232C595.437 575.797 608.492 564.005 618.15 549.188C633.248 526.034 639.873 499.243 649.644 473.802C651.666 468.539 648.823 466.456 643.901 466.397C638.822 466.327 633.717 466.69 628.651 466.404C602.087 464.838 580.458 474.497 563.127 494.491C547.721 512.247 539.35 534.033 528.636 554.45C520.909 569.16 514.558 584.607 507.692 599.766C503.906 608.019 500.341 616.374 496.083 626.049ZM388.176 314.415C388.691 313.904 389.196 313.402 389.702 312.881C388.834 310.3 388.385 307.499 387.068 305.166C372.657 279.867 358.862 254.173 343.383 229.538C329.783 207.893 311.35 190.033 292.465 172.945C288.79 169.626 282.427 168.776 277.117 167.961C273.129 167.338 270.761 170.359 271.109 174.645C271.475 179.119 271.85 183.604 272.534 188.039C275.659 208.765 284.972 226.778 297.71 243.029C315.417 265.621 335.732 285.464 360.983 299.681C369.969 304.742 379.111 309.517 388.176 314.415ZM320.361 331.472C320.724 330.705 321.078 329.927 321.441 329.16C319.377 327.097 317.551 324.693 315.218 322.998C297.437 310.085 279.809 296.944 261.572 284.713C255.467 280.621 247.854 278.587 240.688 276.344C237.841 275.456 232.287 275.564 231.639 276.955C230.276 279.851 230.274 284.372 231.607 287.397C236.224 297.861 243.689 306.608 254.146 311.04C269.364 317.476 285.177 322.587 300.921 327.704C307.133 329.73 313.862 330.258 320.361 331.472Z" fill="#F1A5AF"/>
<path d="M724.479 419.391C707.519 405.492 696.055 387.464 688.034 367.549C683.326 355.845 680.686 343.114 678.605 330.597C674.062 303.406 671.055 275.955 666.223 248.815C663.437 233.164 658.275 217.937 654.222 202.513C653.734 200.657 653.556 198.731 653.096 195.958C663.124 197.718 665.42 205.471 667.98 211.82C676.015 231.667 679.596 252.679 682.877 273.77C686.72 298.528 689.83 323.508 695.675 347.819C700.892 369.524 711.41 389.28 728.244 404.908C730.279 406.792 732.007 409.021 733.874 411.092C730.742 413.858 727.61 416.624 724.479 419.391Z" fill="#F1A5AF"/>
</g>
</svg>
