<svg width="206" height="302" viewBox="0 0 206 302" fill="none" xmlns="http://www.w3.org/2000/svg">
<path d="M105.486 136.879L101.803 158.701C98.8779 159.261 93.2646 159.761 87.5051 158.789C80.2096 157.557 75.0193 154.772 71.5826 150.177C68.3587 145.881 67.0804 139.807 68.2463 133.291C70.5475 119.66 81.7548 112.535 96.0257 114.944C101.337 115.84 105.313 117.631 107.135 118.925L104.338 124.969C102.143 123.546 99.4034 122.227 94.8598 121.46C85.6445 119.905 78.2627 124.253 76.5665 134.3C74.9136 144.092 79.946 150.931 88.9054 152.443C91.7212 152.919 93.8978 152.891 95.0082 152.552L96.8231 141.801L89.2077 140.515L90.2556 134.308L105.486 136.879ZM117.335 163.364L109.4 162.024L114.661 130.858L122.596 132.198L117.335 163.364ZM120.822 118.537C123.509 118.991 124.86 121.128 124.513 123.57C124.114 125.938 122.073 127.502 119.321 127.038C116.697 126.595 115.282 124.447 115.682 122.079C116.093 119.648 118.198 118.094 120.822 118.537ZM134.541 166.268L126.669 164.939L130.937 139.661L126.713 138.948L127.707 133.061L131.93 133.774L132.157 132.43C132.838 128.398 134.606 124.55 137.726 122.444C140.398 120.657 143.674 120.355 146.362 120.808C148.473 121.165 150.083 121.766 151.288 122.43L149.685 128.412C148.907 127.952 147.863 127.512 146.455 127.274C142.551 126.615 140.656 129.652 140.008 133.492L139.738 135.092L146.585 136.248L145.591 142.135L138.808 140.99L134.541 166.268ZM154.599 131.677L162.657 130.734L161.306 138.733L168.794 139.997L167.8 145.884L160.312 144.62L157.99 158.379C157.352 162.155 158.041 164.312 161.049 164.82C162.521 165.068 163.246 165.059 164.186 164.954L163.298 170.991C162.071 171.245 159.958 171.283 157.462 170.862C154.582 170.376 152.323 168.941 151.121 167.093C149.76 165.02 149.468 162.075 150.159 157.979L152.633 143.324L148.153 142.568L149.147 136.68L153.627 137.437L154.599 131.677Z" fill="black"/>
<path d="M110.534 195.397L111.107 195.044C111.42 195.097 111.63 194.993 111.739 194.733C111.85 194.452 112.108 194.26 112.511 194.156C112.935 194.057 113.356 193.785 113.773 193.341C114.194 192.877 114.582 192.674 114.936 192.734C115.061 192.755 115.19 192.884 115.321 193.12C115.452 193.357 115.508 193.537 115.487 193.662C115.371 194.35 115.043 195.023 114.503 195.682L114.23 196.536L113.943 196.905C113.602 197.019 113.364 197.161 113.228 197.331C113.113 197.504 112.835 197.693 112.394 197.897L112.007 198.281C111.524 198.35 111.171 198.537 110.948 198.842C110.746 199.151 110.496 199.301 110.197 199.294C109.919 199.29 109.582 199.447 109.186 199.766C108.96 199.835 108.694 199.886 108.388 199.92L108.273 200.222C108.029 200.395 107.668 200.506 107.189 200.553C106.73 200.604 106.376 200.673 106.125 200.759C105.9 200.828 105.745 200.856 105.662 200.842C105.266 200.775 104.914 200.641 104.605 200.438C104.3 200.216 103.974 200.053 103.626 199.952C103.523 199.806 103.472 199.658 103.476 199.509C103.48 199.359 103.408 199.154 103.259 198.894C103.113 198.612 103.076 198.263 103.146 197.846L103.372 197.274C103.386 197.19 103.351 197.077 103.268 196.935C103.185 196.792 103.15 196.679 103.165 196.596C103.179 196.513 103.21 196.454 103.259 196.419C103.307 196.384 103.339 196.325 103.353 196.242C103.37 196.138 103.369 196.02 103.348 195.888C103.328 195.756 103.325 195.648 103.339 195.565L103.785 194.065C103.806 193.94 103.775 193.871 103.691 193.857C103.608 193.843 103.434 193.92 103.17 194.09C102.926 194.263 102.659 194.325 102.367 194.276C102.179 194.373 102 194.61 101.829 194.988C101.627 195.169 101.387 195.321 101.109 195.445L100.952 195.612C100.886 195.751 100.709 195.849 100.42 195.908C100.136 195.945 99.9287 196.028 99.7999 196.156L99.4347 196.416L98.8516 196.253C98.8029 196.288 98.6566 196.456 98.4129 196.758C98.1726 197.039 97.8891 197.259 97.5623 197.418L94.8604 198.954C94.5823 199.079 94.1826 199.225 93.6613 199.394L93.4421 199.55C91.5892 200.373 90.319 200.726 89.6316 200.61C89.0691 200.515 88.4393 200.248 87.7421 199.809C87.0449 199.37 86.702 198.927 86.7133 198.479L86.6171 197.145C86.4789 196.821 86.4537 196.399 86.5416 195.879C86.5838 195.629 86.6328 195.465 86.6885 195.389L86.7202 195.202L86.8318 194.16C86.874 193.91 87.093 193.818 87.4888 193.885L87.5687 193.031C87.5828 192.948 87.8144 192.655 88.2634 192.152C88.7369 191.632 89.0431 191.341 89.1822 191.279L89.5632 190.925C89.5846 190.672 89.7744 190.436 90.1326 190.218C90.4943 189.979 90.7935 189.73 91.0302 189.47C91.267 189.21 91.6756 188.946 92.2562 188.68L93.3519 187.901C94.2041 187.295 95.0941 186.845 96.0221 186.552C96.1541 186.532 96.4393 186.365 96.8775 186.054C97.3366 185.746 97.8198 185.549 98.3271 185.463C98.8587 185.36 99.3765 185.211 99.8805 185.018C100.405 184.828 100.803 184.756 101.074 184.802L101.324 184.844C101.407 184.858 102.003 184.691 103.112 184.342L103.299 184.374C103.383 184.388 103.567 184.505 103.851 184.724L103.913 184.735L104.456 184.569C104.546 184.542 104.654 184.538 104.779 184.559C106.07 184.777 106.627 185.793 106.45 187.605C106.428 187.987 106.501 188.192 106.667 188.221C106.876 188.256 107.231 187.93 107.732 187.243C108.258 186.539 109.146 186.293 110.396 186.504C111.292 186.655 111.643 187.304 111.449 188.449C111.221 189.803 110.4 190.983 108.988 191.987C108.877 192.14 108.783 192.316 108.706 192.518L108.052 193.725L108.042 193.788C108.02 193.913 107.897 194.074 107.671 194.271C107.469 194.451 107.354 194.625 107.326 194.792L107.256 195.583L106.984 196.437C106.917 196.833 106.946 197.106 107.07 197.255C107.765 197.201 108.29 197.011 108.645 196.685C109.024 196.342 109.28 196.161 109.412 196.14L109.746 196.068C109.986 195.787 110.249 195.563 110.534 195.397ZM100.159 193.646C100.32 193.202 100.628 192.9 101.083 192.741C101.563 192.565 101.866 192.359 101.991 192.123C102.436 191.899 103.087 191.473 103.942 190.846C104.819 190.223 105.271 189.828 105.299 189.661C105.31 189.598 105.274 189.56 105.19 189.546L105.128 189.535L104.851 189.65L104.299 189.492L103.695 189.454L103.295 189.162L102.878 189.156L102.274 188.925C101.941 188.869 101.637 188.893 101.362 188.996C101.112 189.083 100.629 189.151 99.9135 189.202C99.2187 189.256 98.5654 189.445 97.9534 189.771C97.345 190.075 96.9157 190.206 96.6658 190.164C96.4672 190.452 95.902 190.817 94.9703 191.26C94.4422 191.342 94.0578 191.652 93.817 192.19C93.2015 192.536 92.8885 192.74 92.878 192.802L92.5695 193.297C92.3783 193.414 92.1489 193.504 91.8813 193.566C91.6172 193.607 91.4345 193.801 91.333 194.149C91.2351 194.475 91.0365 194.763 90.7373 195.012C90.4625 195.244 90.311 195.444 90.2828 195.61C90.1105 196.631 90.2222 197.175 90.618 197.242C90.7847 197.27 91.146 197.224 91.702 197.103C92.2823 196.966 92.6211 196.862 92.7185 196.793C92.8159 196.724 92.9966 196.668 93.2607 196.627L93.9071 196.415C94.0045 196.346 94.1071 196.309 94.2147 196.306C94.3224 196.303 94.4371 196.258 94.5589 196.171C94.6841 196.064 94.8927 195.971 95.1846 195.891C95.4801 195.791 95.72 195.639 95.9045 195.435C96.2938 195.286 96.9212 195.06 97.7867 194.756L98.5273 194.367C99.0208 194.236 99.3319 194.106 99.4607 193.978C99.5894 193.85 99.8224 193.739 100.159 193.646ZM130.697 179.904L130.715 178.654L130.747 178.466C130.912 177.487 131.337 177.002 132.021 177.01C132.17 177.014 132.63 176.952 133.402 176.825C133.763 176.972 134.092 177.37 134.389 178.021C134.711 178.653 134.835 179.188 134.761 179.626C134.754 179.668 134.707 179.756 134.62 179.891C134.532 180.027 134.443 180.301 134.352 180.714C134.265 181.106 133.996 181.425 133.548 181.671C133.124 181.899 132.693 181.976 132.255 181.903C131.964 181.853 131.622 181.592 131.231 181.119C130.864 180.628 130.686 180.223 130.697 179.904ZM114.56 193.249L115.134 192.896L115.321 192.928C115.467 192.952 115.712 192.833 116.057 192.57L116.39 192.497C116.912 191.943 117.339 191.64 117.669 191.588L118.232 191.298C118.329 191.228 118.456 191.175 118.613 191.137C118.79 191.103 119.073 190.947 119.463 190.67C119.877 190.376 120.188 190.246 120.396 190.281C120.604 190.316 120.768 190.365 120.885 190.428C121.053 190.199 121.343 190.002 121.757 189.836C122.174 189.649 122.525 189.409 122.811 189.114L123.248 188.995C123.61 188.885 123.937 188.726 124.229 188.518C124.545 188.293 124.912 188.215 125.329 188.286C125.933 188.388 126.505 188.806 127.045 189.54C127.61 190.256 127.845 190.896 127.75 191.458L126.807 193.806C126.151 195.538 125.596 196.408 125.145 196.418L124.909 197.053C124.582 197.212 124.408 197.354 124.387 197.479L124.448 198.261C124.431 198.365 124.29 198.502 124.025 198.671C123.984 198.664 123.952 198.723 123.931 198.848L123.715 200.129C123.676 200.358 123.499 200.521 123.183 200.618C123.217 200.667 123.273 200.719 123.349 200.775C123.495 200.671 123.787 200.656 124.224 200.73L124.714 200.876L125.517 200.305C125.67 200.288 125.884 200.228 126.158 200.124C126.457 200.003 126.94 199.87 127.607 199.726L132.228 197.292C132.886 196.825 133.36 196.616 133.652 196.665C133.964 196.718 134.087 196.942 134.02 197.338C133.943 197.796 133.784 198.165 133.544 198.446C133.328 198.71 133.11 199.048 132.891 199.461C132.675 199.853 132.448 200.115 132.212 200.246C131.996 200.381 131.808 200.542 131.648 200.729C131.492 200.896 131.1 201.119 130.475 201.399C129.87 201.683 129.336 201.989 128.873 202.318C128.435 202.629 128.077 202.848 127.799 202.972L126.291 203.714L126.051 203.995C126.003 204.029 125.789 204.09 125.41 204.176C125.056 204.244 124.725 204.36 124.419 204.523L123.804 204.74C123.665 204.802 123.448 204.819 123.153 204.791C122.879 204.766 122.618 204.851 122.371 205.045C122.127 205.218 121.943 205.294 121.818 205.273L121.36 205.131L120.703 205.213C120.349 205.153 119.947 204.871 119.497 204.366C119.07 203.845 118.898 203.344 118.979 202.865L119.01 202.678L119.147 202.251C119.161 202.167 119.133 201.948 119.065 201.594C119 201.219 118.97 201.01 118.977 200.969L119.114 200.542L119.083 200.344C119.178 199.781 119.279 199.434 119.387 199.302C119.495 199.171 119.591 198.983 119.675 198.74C119.762 198.477 119.841 198.265 119.911 198.105L120.199 197.35C120.324 197.114 120.457 196.965 120.596 196.903C120.666 196.744 120.796 196.476 120.988 196.102L121.208 195.56L121.594 195.176C121.789 195.037 121.92 194.834 121.986 194.567C122.077 194.282 122.243 194 122.483 193.719C122.723 193.438 122.849 193.266 122.859 193.204C122.902 192.954 122.798 192.808 122.548 192.765C122.464 192.751 122.176 192.874 121.682 193.134L121.151 192.851C121.11 192.844 120.977 192.929 120.755 193.106C120.741 193.189 120.636 193.236 120.442 193.246C120.247 193.256 120.044 193.382 119.832 193.625L119.571 193.645L119.197 193.389L119.072 193.368C118.863 193.333 118.7 193.541 118.58 193.992C118.295 194.287 117.956 194.454 117.564 194.495L116.844 194.567C116.601 194.611 116.403 194.771 116.25 195.045C116.096 195.319 115.842 195.554 115.487 195.752C115.136 195.928 114.909 196.007 114.804 195.99C114.221 195.891 113.984 195.519 114.093 194.873L114.591 193.447L114.56 193.249ZM133.959 204.558L133.978 202.922C133.999 202.797 134.095 202.61 134.265 202.36C134.39 202.381 134.501 202.357 134.599 202.288L134.506 201.694C134.629 200.965 134.933 200.373 135.417 199.919C135.925 199.448 136.215 199.122 136.289 198.942C136.362 198.761 136.756 198.206 137.469 197.277C138.208 196.33 138.737 195.734 139.057 195.488L139.313 195.114L139.574 195.093C140.183 194.403 140.978 193.82 141.958 193.343C142.327 192.934 142.745 192.618 143.21 192.397C143.676 192.176 143.993 192.015 144.16 191.915C144.327 191.814 144.559 191.768 144.858 191.775L144.994 191.734C145.7 191.232 146.271 191.018 146.709 191.092C146.879 190.97 147.199 190.853 147.668 190.739L148.012 190.797C148.137 190.818 148.269 190.798 148.408 190.736C148.547 190.673 148.679 190.653 148.804 190.674C148.887 190.688 149.092 190.808 149.418 191.035C149.808 190.758 150.107 190.637 150.315 190.672C150.752 190.746 151.162 190.986 151.543 191.393C151.945 191.804 152.168 192.26 152.212 192.76C152.256 193.26 152.313 193.559 152.382 193.656C152.451 193.754 152.517 193.872 152.579 194.011C152.746 194.039 153.03 193.691 153.431 192.965L153.89 192.529C154.576 191.895 155.105 191.106 155.479 190.162C155.528 190.127 155.618 189.971 155.751 189.693C155.887 189.395 156.194 188.911 156.671 188.242C157.423 187.469 158.001 186.645 158.406 185.771L158.875 185.272C159.154 185.147 159.319 184.993 159.371 184.809C159.427 184.604 159.522 184.427 159.654 184.278C159.786 184.129 159.934 183.951 160.098 183.742C160.286 183.517 160.429 183.37 160.526 183.301C160.623 183.231 160.796 182.971 161.043 182.52C161.294 182.048 161.54 181.801 161.779 181.777C162.04 181.756 162.309 181.684 162.587 181.56L162.687 181.351L162.636 180.893C162.678 180.643 163.023 180.251 163.67 179.718C164.338 179.188 164.82 178.744 165.116 178.387C165.436 178.012 165.948 177.456 166.651 176.718C167.378 175.962 167.883 175.512 168.164 175.366L169.01 174.738C169.424 174.315 169.933 174.154 170.537 174.256C170.995 174.334 171.432 174.665 171.848 175.249C172.267 175.813 172.436 176.334 172.355 176.813C172.327 176.98 172.147 177.346 171.816 177.911L171.691 178.276C171.634 178.609 171.453 178.985 171.146 179.405C170.84 179.825 170.645 180.156 170.561 180.399L168.088 184.384C167.866 184.433 167.73 184.474 167.682 184.509C166.94 185.605 166.403 186.178 166.073 186.23L165.968 186.855C165.929 187.084 165.755 187.226 165.446 187.281L165.31 187.322C164.989 188.082 164.653 188.614 164.302 188.919C163.95 189.224 163.67 189.552 163.461 189.902C163.276 190.235 163.034 190.398 162.736 190.39C162.437 190.383 162.223 190.764 162.092 191.535C161.939 191.938 161.695 192.111 161.362 192.055C161.05 192.002 160.806 192.239 160.631 192.767C160.456 193.294 160.001 193.518 159.265 193.436C159.035 193.526 158.886 193.651 158.816 193.81L158.934 194.634C158.913 194.759 158.445 195.183 157.53 195.907L157.143 196.677C156.722 196.756 156.218 197.775 155.631 199.732L154.892 201.825L154.812 202.679L154.613 203.096L154.772 204.44L154.588 205.148C154.532 205.482 154.629 205.669 154.879 205.712C155.004 205.733 155.316 205.593 155.817 205.292L156.286 205.178C157.711 204.733 158.633 204.224 159.051 203.652C159.148 203.583 159.308 203.524 159.53 203.476C159.774 203.431 159.96 203.345 160.088 203.217C160.217 203.088 160.318 202.998 160.391 202.946C161.802 202.328 162.748 201.737 163.229 201.176C163.709 200.614 164.158 200.304 164.575 200.246L164.867 200.038C165.152 199.872 165.378 199.803 165.545 199.831C165.899 199.891 166.058 200.025 166.023 200.233L165.626 201.066C165.739 201.664 165.789 202.004 165.775 202.088C165.651 202.817 165.253 203.21 164.579 203.268C164.263 203.493 163.991 203.768 163.765 204.094C163.559 204.424 163.189 204.586 162.654 204.582C162.215 205.022 161.836 205.301 161.516 205.418C161.2 205.515 161.028 205.646 161 205.813L160.952 206.094C160.744 206.316 160.57 206.458 160.43 206.52L159.858 206.295C159.732 206.531 159.487 206.843 159.121 207.231C159.031 207.13 158.945 207.073 158.861 207.059C158.57 207.01 158.3 207.146 158.053 207.469C157.806 207.791 157.64 207.945 157.557 207.931L156.838 207.81C156.724 207.855 156.534 207.962 156.27 208.132C156.005 208.302 155.602 208.341 155.061 208.249L154.06 208.273C153.144 208.118 152.349 207.684 151.677 206.971C151.008 206.237 150.683 205.625 150.702 205.135C150.744 204.628 150.678 204.006 150.502 203.27L150.656 201.978C150.652 200.606 150.504 199.895 150.212 199.846L150.081 200.242L149.81 200.325C149.576 200.949 149.313 201.237 149.022 201.188C148.886 201.229 148.733 201.31 148.563 201.432L148.354 201.525C148.264 201.553 148.109 201.709 147.89 201.993C147.691 202.281 147.19 202.646 146.387 203.089C145.965 203.811 145.681 204.159 145.536 204.134L145.203 203.821L145.14 203.811C144.974 203.782 144.796 204.01 144.607 204.492C144.422 204.953 144.174 205.158 143.861 205.105C143.778 205.091 143.67 205.223 143.537 205.5C143.429 205.761 143.222 205.908 142.916 205.942C142.614 205.955 142.306 206.192 141.993 206.654C141.679 207.115 141.481 207.339 141.397 207.325C141.356 207.317 141.297 207.286 141.221 207.23L140.668 207.266C140.539 207.394 140.353 207.609 140.109 207.911C139.911 207.941 139.731 207.997 139.567 208.076C138.816 208.592 137.909 208.76 136.847 208.581C136.097 208.454 135.529 208.198 135.145 207.812C134.764 207.404 134.551 207.079 134.506 206.836C134.461 206.593 134.353 206.285 134.18 205.913C134.01 205.52 133.937 205.069 133.959 204.558ZM160.577 188.708L160.112 189.562C160.39 189.566 160.677 189.325 160.973 188.839C161.749 188.049 162.269 187.569 162.534 187.4C162.804 187.445 163.03 187.312 163.212 187C163.417 186.67 163.725 186.369 164.136 186.095C164.16 185.95 164.364 185.695 164.747 185.331C165.13 184.967 165.377 184.709 165.488 184.556C165.624 184.386 165.862 184.18 166.203 183.938C166.544 183.695 166.899 183.241 167.269 182.575C167.659 181.912 167.96 181.524 168.173 181.41C168.385 181.296 168.528 181.02 168.602 180.582C168.704 179.978 168.713 179.669 168.63 179.655C168.442 179.623 168.275 179.724 168.129 179.956C168.007 180.171 167.758 180.44 167.382 180.762L166.019 182.364C165.483 183.002 165.107 183.517 164.89 183.909C164.695 184.304 164.497 184.528 164.295 184.58C164.118 184.614 163.876 184.777 163.57 185.068L163.059 185.431C162.912 185.664 162.778 185.952 162.656 186.295L162.332 186.498L162.232 187.092C162.186 187.362 161.988 187.586 161.637 187.762C161.289 187.918 161.11 188.027 161.099 188.09L160.577 188.708ZM147.624 199.57L147.911 199.2C148.286 199.135 148.568 198.861 148.757 198.379C148.945 198.282 149.463 197.813 150.312 196.97C151.161 196.128 151.595 195.655 151.612 195.551C151.439 195.307 151.217 195.163 150.946 195.117C150.905 195.11 150.773 195.131 150.55 195.179C150.328 195.227 150.099 195.253 149.863 195.256C149.647 195.262 149.404 195.307 149.133 195.389L148.373 195.133C148.144 195.094 147.582 195.31 146.689 195.78L145.991 195.534C145.866 195.513 145.612 195.749 145.229 196.241L143.419 197.253L143.232 197.221C142.94 197.172 142.698 197.399 142.506 197.902C142.075 198.301 141.687 198.567 141.343 198.702C141.002 198.816 140.741 199.029 140.56 199.341L140.491 199.748C139.799 200.295 139.425 200.735 139.368 201.069C138.861 201.411 138.493 201.81 138.267 202.264C138.061 202.723 137.836 203.102 137.592 203.404C137.626 203.71 137.627 204.085 137.595 204.529C137.566 204.953 137.739 205.197 138.114 205.26C138.719 205.362 139.447 205.11 140.299 204.504C140.348 204.469 140.544 204.384 140.888 204.25C141.232 204.115 141.721 203.822 142.354 203.372C143.011 202.905 143.373 202.666 143.439 202.656C143.683 202.482 143.825 202.399 143.867 202.406L144.159 202.199C144.173 202.115 144.272 202.036 144.456 201.96C144.661 201.887 144.936 201.719 145.281 201.456C145.629 201.172 145.881 201.011 146.037 200.973C146.214 200.939 146.343 200.875 146.423 200.781C146.507 200.667 146.63 200.57 146.793 200.49C146.957 200.411 147.049 200.308 147.07 200.183L147.196 199.819L147.624 199.57Z" fill="black"/>
<path d="M123.756 254.4L115.821 253.06L121.082 221.894L129.018 223.234L123.756 254.4ZM127.243 209.573C129.931 210.027 131.281 212.164 130.935 214.606C130.535 216.974 128.494 218.538 125.742 218.074C123.118 217.631 121.704 215.483 122.104 213.115C122.514 210.683 124.619 209.13 127.243 209.573ZM139.772 219.126L147.83 218.182L146.479 226.182L153.967 227.446L152.973 233.333L145.485 232.069L143.163 245.828C142.525 249.604 143.214 251.761 146.222 252.268C147.694 252.517 148.419 252.508 149.359 252.403L148.471 258.44C147.244 258.694 145.131 258.732 142.635 258.311C139.755 257.824 137.496 256.39 136.295 254.542C134.933 252.469 134.641 249.523 135.332 245.428L137.806 230.773L133.326 230.017L134.32 224.129L138.8 224.885L139.772 219.126Z" fill="black"/>
<path d="M25.5536 92.7338C25.6531 92.1447 25.2562 91.5866 24.6671 91.4871C24.0781 91.3877 23.5199 91.7846 23.4205 92.3737L25.5536 92.7338ZM1.43984 229.077L0.373256 228.897L0.192818 229.965L1.26205 230.144L1.43984 229.077ZM97.3118 245.04C96.7814 248.182 98.8983 251.158 102.04 251.689C105.182 252.219 108.158 250.102 108.689 246.961C109.219 243.819 107.102 240.842 103.961 240.312C100.819 239.781 97.8422 241.898 97.3118 245.04ZM23.4205 92.3737L0.373256 228.897L2.50643 229.257L25.5536 92.7338L23.4205 92.3737ZM1.26205 230.144L102.822 247.067L103.178 244.933L1.61764 228.01L1.26205 230.144Z" fill="black"/>
<path d="M26.9493 81.9998L185.532 108.771L196.859 110.683L203.341 72.2861L22.104 41.6904L15.622 80.0875L26.9493 81.9998Z" stroke="#F13B48" stroke-width="4.32671" stroke-linecap="round" stroke-linejoin="round"/>
<path d="M117 55.7966C129.127 37.142 158.619 0.716924 175.862 26.2117C193.106 51.7065 143.497 58.3877 117 55.7966Z" stroke="#F13B48" stroke-width="4.32671" stroke-linecap="round" stroke-linejoin="round"/>
<path d="M117.596 55.5196C112.265 33.9179 96.3649 -10.17 71.7081 8.25137C47.0513 26.6727 91.7174 49.2689 117.596 55.5196Z" stroke="#F13B48" stroke-width="4.32671" stroke-linecap="round" stroke-linejoin="round"/>
</svg>
