<svg width="161" height="141" viewBox="0 0 161 141" fill="none" xmlns="http://www.w3.org/2000/svg">
<path fill-rule="evenodd" clip-rule="evenodd" d="M6.40218 90.8506H27.6018C27.7538 90.2851 27.8246 89.702 27.8034 89.0976C27.5912 83.2131 24.1116 73.0345 19.5817 65.0472H0.843262C1.67074 71.1331 4.51384 83.4428 6.40218 90.8506ZM115.003 76.4027C113.801 81.909 117.079 86.9523 122.348 90.8506H151.49C149.796 86.3833 147.243 82.1705 148.303 80.8629C149.531 79.3537 153.749 82.5558 156.2 78.4631C159.559 72.8437 160.797 68.4188 160.503 65.0472H122.751C118.847 68.1891 115.951 72.0485 115.003 76.4027ZM92.1731 90.8435C92.1625 90.8471 92.1554 90.8471 92.1448 90.8506H101.148C98.4464 90.172 95.4335 90.1049 92.1731 90.8435Z" fill="#AD0003"/>
<path fill-rule="evenodd" clip-rule="evenodd" d="M79.3862 5.49844V24.2263C86.2819 27.393 97.8912 26.4812 105.204 21.406V0.879196C105.155 0.872131 105.105 0.865067 105.056 0.861542C98.9309 0.161758 87.0209 1.56837 79.3862 5.49844ZM92.1732 90.843C86.6213 92.0976 82.4309 95.4339 79.3898 99.7316V134.031C88.7996 133.918 89.3442 116.576 95.7412 114.999C97.3573 114.6 102.089 124.408 105.204 124.383V92.4334C101.604 90.4719 97.1769 89.7085 92.1732 90.843Z" fill="#AD0003"/>
<path fill-rule="evenodd" clip-rule="evenodd" d="M75.1215 66.5732L78.4173 66.4707L88.6794 44.8095C93.0077 23.028 91.6144 10.3366 83.2831 8.65784C72.5507 11.874 72.0945 42.1199 75.1215 66.5732Z" fill="#940305"/>
<path fill-rule="evenodd" clip-rule="evenodd" d="M15.4795 62.234C27.4036 75.2258 46.3648 76.5971 70.7611 68.9985C47.4256 59.5055 27.1561 54.5293 15.4795 62.234Z" fill="#940305"/>
<path fill-rule="evenodd" clip-rule="evenodd" d="M92.2578 78.76L92.3674 81.1738C112.195 90.7021 135.523 111.847 146.044 90.4583C144.152 85.4891 139.763 82.4921 134.943 79.8414L92.2578 78.76Z" fill="#940305"/>
<path fill-rule="evenodd" clip-rule="evenodd" d="M91.4163 77.6922L85.6558 86.1708C93.6794 109.938 123.023 138.757 133.25 117.661C138.278 108.143 150.906 100.495 145.641 89.4647C140.379 102.955 113.73 89.1254 91.4163 77.6922Z" fill="#BD1214"/>
<path fill-rule="evenodd" clip-rule="evenodd" d="M88.124 72.7198L90.0477 74.7803C113.182 66.0366 133.607 55.7131 133.579 33.4687C108.62 28.5879 93.3223 50.9066 88.124 72.7198Z" fill="#940305"/>
<path fill-rule="evenodd" clip-rule="evenodd" d="M80.2523 10.5492C85.3409 7.09268 90.373 17.3031 88.0461 28.0365C84.57 44.2339 72.7414 56.1336 77.2147 70.9845L88.2017 75.3457C92.0385 58.9681 134.961 41.8836 116.06 15.8682C107.93 1.44147 83.343 2.58654 80.2523 10.5492Z" fill="#BD1214"/>
<path fill-rule="evenodd" clip-rule="evenodd" d="M74.8035 66.6264L78.2372 66.9551C70.0508 37.7023 60.8673 19.911 50.3718 17.2603C46.9876 36.1472 57.2002 52.1643 74.8035 66.6264Z" fill="#940305"/>
<path fill-rule="evenodd" clip-rule="evenodd" d="M37.4504 24.1137C34.6674 28.1852 30.82 32.253 24.3558 36.3245C15.1368 42.3291 19.8789 55.6708 35.5302 57.3496C48.8547 59.9154 60.7187 63.5204 68.3498 70.1152L74.9802 63.4673C58.4979 48.1041 49.6397 32.7408 51.2204 17.3775C45.7286 15.9284 41.1386 18.1692 37.4504 24.1137Z" fill="#BD1214"/>
<path fill-rule="evenodd" clip-rule="evenodd" d="M13.733 79.2046C15.7734 82.76 16.4099 88.1073 16.3463 94.3523C16.9722 110.366 51.8605 98.8373 72.2644 79.5298L70.2877 68.5489C32.3087 72.9031 19.6915 68.6691 18.1321 60.6959C10.119 64.1877 9.02982 70.5104 13.733 79.2046Z" fill="#BD1214"/>
<path fill-rule="evenodd" clip-rule="evenodd" d="M73.7072 82.877C60.0256 104.909 43.2215 124.814 29.8652 116.604C32.4042 121.269 36.287 124.687 41.5383 126.829C45.4281 128.529 48.3137 131.027 50.3965 134.173C53.3776 138.527 57.575 141.301 64.7924 140.139C92.9195 134.385 87.3641 108.172 82.0386 88.5318L73.7072 82.877Z" fill="#BD1214"/>
<path fill-rule="evenodd" clip-rule="evenodd" d="M87.3145 73.7093L91.7099 79.5266C125.237 85.7998 163.523 79.6962 149.276 59.9823C145.591 55.6281 143.289 50.7014 141.786 45.439C139.021 35.9354 134.986 32.8925 130.347 32.9808C132.638 44.4883 115.686 61.4596 87.3145 73.7093Z" fill="#BD1214"/>
<path fill-rule="evenodd" clip-rule="evenodd" d="M64.9514 83.527C57.5183 93.4229 42.6202 99.2402 32.7966 108.677C28.7229 113.154 28.44 116.501 31.9408 118.724C53.8654 128.836 64.3573 105.899 74.4567 81.8306C71.0266 77.8616 67.9855 80.6466 64.9514 83.527Z" fill="#940305"/>
<path fill-rule="evenodd" clip-rule="evenodd" d="M88.8101 88.2312C88.9727 88.5811 89.146 88.9557 89.3263 89.3445C90.5428 91.9245 92.2649 95.0947 95.2637 94.9568C95.2637 94.8897 95.2637 94.5468 95.2637 94.5468C95.3556 92.7161 91.4269 88.62 95.2637 89.1925C101.544 90.1326 100.582 98.7243 107.485 97.7029C109.596 93.4512 103.043 91.8326 101.303 88.9204C100.19 87.0508 103.358 86.4711 103.365 86.4499C103.906 84.4425 92.2826 81.2228 90.7302 81.5091C90.465 83.7533 91.6956 87.5102 88.8101 88.2312Z" fill="#AD0003"/>
<path fill-rule="evenodd" clip-rule="evenodd" d="M45.145 76.9748C44.6995 77.5579 44.116 79.8516 44.8692 80.403C47.4542 82.3008 55.9941 76.6496 59.4278 77.7947C59.792 77.9149 60.5947 78.0386 60.6619 78.4803C60.8812 79.887 55.5556 79.3462 55.7183 82.1842C55.7713 83.0819 56.1957 83.6156 57.0939 83.6933C57.932 83.764 58.5296 83.7534 59.2899 83.4212C63.3848 81.6293 67.0908 77.9644 70.3865 76.374C70.6729 76.2361 70.9594 76.1124 71.2388 76.0064C71.2847 74.7376 71.854 69.0581 70.8285 68.8708C69.8101 68.6905 45.923 75.9569 45.145 76.9748Z" fill="#AD0003"/>
<path fill-rule="evenodd" clip-rule="evenodd" d="M87.3038 58.3104C86.784 58.9642 85.0583 59.0985 84.5562 58.5825C83.2655 57.2536 84.3723 54.1223 84.0081 52.4047C83.9656 52.2068 83.9196 52.0512 83.8701 51.8569C78.6189 52.9701 78.3643 61.265 78.3784 65.446C78.6083 65.6297 84.7578 68.1673 86.0697 68.8742C89.6024 70.7862 97.5659 57.653 97.8806 54.7373C95.9711 55.2815 93.9802 60.3779 92.1131 57.8933C91.5473 57.1441 91.816 56.2782 92.3889 55.6986C94.4859 53.5745 98.0468 46.1385 98.0185 43.3464C98.015 42.9435 97.8771 42.0706 97.8842 41.8373C97.9018 41.0209 97.3361 40.9361 97.4704 40.4625C92.739 41.1941 90.0303 54.8822 87.3038 58.3104Z" fill="#AD0003"/>
<path fill-rule="evenodd" clip-rule="evenodd" d="M57.6384 51.1748C56.6978 53.7124 62.9675 57.9817 63.6818 61.0565C62.8755 60.9116 58.6674 60.2366 58.4623 61.4665C58.3704 62.032 59.5727 62.9897 59.9758 63.2513C62.5148 64.8982 68.0879 69.7507 71.4615 69.4856C72.4339 69.4079 73.226 68.906 73.7105 67.7786C74.0995 66.8668 76.3414 65.3753 75.0825 64.209C73.0669 62.343 69.803 60.5653 67.6671 58.3069C66.5426 57.1159 61.9172 51.0511 61.0756 50.7578C60.4002 50.5281 58.3138 50.8497 57.6384 51.1748Z" fill="#AD0003"/>
<path fill-rule="evenodd" clip-rule="evenodd" d="M88.7182 74.7769C88.163 74.9218 87.6821 75.0632 87.3037 75.194C87.7952 75.9044 88.308 76.8162 88.1276 77.9401C92.2226 78.1238 117.616 80.8099 115.042 76.2931C114.78 75.8337 113.744 75.4166 113.26 75.3318C109.783 74.7487 106.254 75.1904 102.686 75.6039C101.859 75.6994 101.809 75.3919 101.038 75.4661C100.837 75.4838 99.9527 75.4166 99.8007 75.3318C98.0255 74.2998 102.7 74.1125 101.862 70.8009C99.8042 72.4514 92.509 73.7803 88.7182 74.7769Z" fill="#AD0003"/>
<path fill-rule="evenodd" clip-rule="evenodd" d="M77.3282 56.5999C76.0552 61.2403 75.6945 65.9444 77.2151 70.9842L88.2021 75.3454C88.2304 75.2288 88.2552 75.1157 88.287 75.0026L90.8967 78.4555L85.6525 86.1743C86.5153 88.726 87.6186 91.3343 88.9235 93.9355C89.9419 93.7976 90.9426 93.6386 91.9186 93.469C91.9257 93.3841 92.2794 92.7833 92.7921 91.8538C94.1288 89.4329 96.5476 84.7677 96.7244 81.1168C96.735 80.8871 96.7385 80.6538 96.7385 80.4171C96.6961 80.3958 96.6536 80.3711 96.6112 80.3534C96.6536 80.3605 96.6961 80.364 96.7385 80.3711C96.7314 77.4094 95.8686 73.8752 94.3586 70.4541C92.6294 71.3058 90.8507 72.1399 89.0225 72.9563C89.8641 71.0761 91.1548 69.1817 92.7391 67.2627C89.2913 61.3004 83.9162 56.3949 77.8445 56.5822C77.6712 56.5858 77.4979 56.5928 77.3282 56.5999ZM65.3475 67.8105C65.8744 68.1709 66.3872 68.542 66.8858 68.9237C66.3341 68.9803 65.7896 69.0368 65.2485 69.0898C65.1707 70.1148 65.0858 71.2069 64.9727 72.3661C64.7464 74.6598 63.8093 81.4137 64.3998 84.3118C64.4599 84.6051 70.0755 80.1202 72.3634 77.9572L70.2876 68.5491C70.1462 68.5668 70.0047 68.5809 69.8633 68.5986L74.9802 63.4669C73.06 61.6786 71.246 59.8903 69.5415 58.1019C66.175 59.8019 65.7294 62.958 65.3475 67.8105ZM70.1391 91.5817C73.937 94.0132 78.7356 94.6211 83.5696 94.4303C83.0781 92.4193 82.5583 90.4437 82.042 88.5352L75.0403 82.6259C73.4207 85.2271 69.6546 91.2707 70.1391 91.5817Z" fill="#AD0003"/>
<path fill-rule="evenodd" clip-rule="evenodd" d="M70.7258 100.279C73.2542 101.035 72.5788 96.6777 74.7924 96.1052C74.9197 96.2042 74.8915 96.5434 75.0117 96.7661C75.0223 96.7873 75.0046 97.738 75.0117 97.8653C75.0188 97.9854 75.0046 99.2295 75.0117 99.2931C75.0152 99.3214 75.0082 100.799 75.0117 101.05C75.04 104.114 73.3567 107.139 73.9119 110.164C74.0993 111.172 75.5209 112.596 76.221 111.154L76.6596 110.055C76.8364 109.553 76.9035 109.044 76.9884 108.517C77.0874 107.917 77.3173 107.358 77.4269 106.761C77.5684 105.998 77.5153 105.22 77.6462 104.457C77.9715 102.587 78.3039 100.693 78.6363 98.8584C79.5663 93.7302 80.8394 101.908 81.0515 102.371C82.5862 100.816 81.3238 88.6303 80.2842 87.4393C79.973 87.0859 75.0647 88.3228 73.6078 86.1988C74.2868 91.1997 70.1777 95.5008 70.7258 100.279Z" fill="#AD0003"/>
<path fill-rule="evenodd" clip-rule="evenodd" d="M71.0974 63.7991C66.7585 67.397 66.0796 72.9457 69.3152 80.1308C72.1512 89.0901 76.4442 94.9463 84.8321 92.0729C94.8255 90.3129 97.9338 83.6155 91.0134 71.4861C83.8137 60.0952 77.0312 59.2718 71.0974 63.7991Z" fill="#BD1214"/>
<path fill-rule="evenodd" clip-rule="evenodd" d="M73.293 76.1515C73.0455 82.0537 75.7683 86.4079 79.0216 88.4224C82.5791 90.6277 86.773 90.0375 88.3997 85.6197C89.5207 82.5768 76.0477 74.2183 74.803 73.9533C73.2294 73.621 73.339 75.1195 73.293 76.1515Z" fill="#CF2B2E"/>
<path fill-rule="evenodd" clip-rule="evenodd" d="M93.6193 14.8005C92.3923 16.2884 95.9002 22.6606 94.4786 25.9863C98.1244 23.1201 115.137 27.6792 112.711 21.7983C110.972 17.5996 96.8585 10.8704 93.6193 14.8005Z" fill="#CF2B2E"/>
<path fill-rule="evenodd" clip-rule="evenodd" d="M139.99 64.0541C140.276 64.0683 140.559 64.04 140.846 63.9587C145.117 62.803 138.119 50.7654 136.383 47.1464C128.706 46.0402 134.222 63.7961 139.99 64.0541Z" fill="#CF2B2E"/>
<path fill-rule="evenodd" clip-rule="evenodd" d="M43.1719 26.7288C36.4885 29.2416 38.7198 34.0553 34.7593 37.1972C45.2831 41.4771 51.6412 23.548 43.1719 26.7288Z" fill="#CF2B2E"/>
<path fill-rule="evenodd" clip-rule="evenodd" d="M18.9665 75.9675C17.4388 77.7947 19.2388 83.2904 21.6469 86.1743C22.6017 87.3194 23.6555 88.0546 24.635 87.9768C27.6302 87.74 27.6656 80.1909 27.2094 77.6816C26.6012 74.3559 21.4277 73.027 18.9665 75.9675Z" fill="#CF2B2E"/>
<path fill-rule="evenodd" clip-rule="evenodd" d="M54.3286 130.009C55.0571 130.723 56.3584 131.441 57.8719 132.013C62.4301 133.741 68.9226 134.187 67.547 129.497C65.786 128.422 46.3898 122.213 54.3286 130.009Z" fill="#CF2B2E"/>
<path fill-rule="evenodd" clip-rule="evenodd" d="M119.558 116.971C120.611 118.205 121.792 118.774 123.005 118.848C128.059 119.159 133.66 110.843 132.949 106.164C129.706 107.952 113.691 110.104 119.558 116.971Z" fill="#CF2B2E"/>
</svg>
