<svg width="180" height="146" viewBox="0 0 180 146" fill="none" xmlns="http://www.w3.org/2000/svg">
<path d="M122.421 121.347L178.42 135.548L159.754 92.9434" stroke="#001A72" stroke-width="1.5" stroke-linecap="round" stroke-linejoin="round"/>
<path d="M122.421 121.346C122.421 121.346 110.482 128.073 85.0882 128.073C38.9682 128.073 1.58044 99.6281 1.58044 64.5396C1.58044 29.4509 38.9682 1.00586 85.0882 1.00586C131.208 1.00586 168.596 29.4509 168.596 64.5396C168.596 83.2259 159.754 92.9429 159.754 92.9429" stroke="black" stroke-width="1.5" stroke-linecap="round" stroke-linejoin="round"/>
<path d="M30.4652 46H28.6612L29.8272 39.84L26.9672 31.172H28.9252L30.3552 35.968C30.7292 37.288 30.8612 37.882 30.9712 38.454H31.0152C31.3892 37.838 31.8952 37.002 32.5992 35.902L35.8112 31.172H37.9452L31.6312 39.818L30.4652 46ZM41.6251 35.11C44.5071 35.11 45.7831 37.288 45.7831 39.554C45.7831 42.832 43.4511 46.242 39.8871 46.242C37.2251 46.242 35.7291 44.262 35.7291 41.864C35.7291 38.366 38.1711 35.11 41.6251 35.11ZM41.4271 36.562C39.1391 36.562 37.5991 39.356 37.6211 41.798C37.6211 43.536 38.5671 44.79 40.1291 44.79C42.2851 44.79 43.9131 42.018 43.9131 39.532C43.9131 38.3 43.3411 36.562 41.4271 36.562ZM55.6272 35.352H57.4532L56.0232 42.898C55.8032 44.086 55.6492 45.12 55.5392 46H53.8892L54.1752 43.998H54.1312C53.1852 45.384 51.7772 46.242 50.3692 46.242C49.0052 46.242 47.5752 45.582 47.5752 43.162C47.5752 42.656 47.6412 42.084 47.7732 41.38L48.9172 35.352H50.7432L49.6212 41.292C49.4892 41.886 49.4232 42.392 49.4232 42.854C49.4232 43.954 49.8852 44.702 51.1392 44.702C52.4592 44.702 54.1532 43.162 54.5932 40.808L55.6272 35.352ZM71.4014 46H69.7074C69.7074 45.362 69.8174 44.35 69.9494 43.25H69.9054C68.7394 45.45 67.2874 46.242 65.7694 46.242C63.8994 46.242 62.7114 44.746 62.7114 42.722C62.7114 39.026 65.4394 35.11 70.0814 35.11C71.0934 35.11 72.2154 35.286 72.9414 35.528L71.8634 41.072C71.5114 42.92 71.3574 44.812 71.4014 46ZM70.2794 39.928L70.8954 36.716C70.6314 36.65 70.2354 36.562 69.6194 36.562C66.8694 36.562 64.6254 39.444 64.6034 42.392C64.6034 43.58 65.0214 44.746 66.4294 44.746C67.9474 44.746 69.7514 42.766 70.2794 39.928ZM75.9655 46H74.1395L75.4375 39.136C75.7015 37.75 75.8775 36.342 75.9875 35.352H77.5935C77.5055 36.1 77.4175 36.848 77.3075 37.662H77.3735C78.0555 36.21 79.1995 35.11 80.6295 35.11C80.7835 35.11 81.0035 35.132 81.1355 35.154L80.7835 36.958C80.6735 36.936 80.4975 36.914 80.2995 36.914C78.7155 36.914 77.3075 38.828 76.8455 41.314L75.9655 46ZM88.4285 44.02L88.6925 45.384C87.9005 45.846 86.6025 46.242 85.1725 46.242C82.3565 46.242 81.1245 44.306 81.1245 41.952C81.1245 38.74 83.5005 35.11 86.9325 35.11C88.9565 35.11 90.0565 36.32 90.0565 37.838C90.0565 40.632 86.9105 41.38 82.9725 41.314C82.8845 41.776 82.9505 42.766 83.1925 43.338C83.6105 44.284 84.4685 44.768 85.5685 44.768C86.8225 44.768 87.7685 44.372 88.4285 44.02ZM88.2965 37.904V37.882C88.2965 37.024 87.6365 36.54 86.6685 36.54C84.9305 36.54 83.6325 38.234 83.1925 39.906C86.0525 39.928 88.2965 39.554 88.2965 37.904ZM104.483 30.38H106.309L103.977 42.634C103.757 43.734 103.581 44.966 103.515 46H101.843L102.129 43.888H102.085C101.117 45.406 99.7754 46.242 98.2573 46.242C96.1894 46.242 95.0673 44.548 95.0673 42.37C95.0673 38.586 97.8834 35.11 101.645 35.11C102.327 35.11 103.075 35.264 103.537 35.484L104.483 30.38ZM102.525 40.742L103.251 37.024C102.877 36.782 102.261 36.584 101.491 36.584C98.9394 36.584 96.9594 39.29 96.9594 42.128C96.9594 43.404 97.3994 44.746 98.9614 44.746C100.369 44.746 102.063 43.14 102.525 40.742ZM112.588 35.11C115.47 35.11 116.746 37.288 116.746 39.554C116.746 42.832 114.414 46.242 110.85 46.242C108.188 46.242 106.692 44.262 106.692 41.864C106.692 38.366 109.134 35.11 112.588 35.11ZM112.39 36.562C110.102 36.562 108.562 39.356 108.584 41.798C108.584 43.536 109.53 44.79 111.092 44.79C113.248 44.79 114.876 42.018 114.876 39.532C114.876 38.3 114.304 36.562 112.39 36.562ZM119.858 46H118.032L120.078 35.352H121.904L119.858 46ZM121.464 33.526H121.442C120.826 33.526 120.408 33.042 120.408 32.382C120.43 31.678 120.958 31.15 121.618 31.15C122.278 31.15 122.696 31.634 122.696 32.294C122.674 33.02 122.168 33.526 121.464 33.526ZM124.885 46H123.059L124.489 38.454C124.731 37.266 124.863 36.232 124.995 35.352H126.623L126.359 37.442H126.403C127.349 35.946 128.779 35.11 130.341 35.11C131.617 35.11 133.047 35.836 133.047 38.08C133.047 38.542 132.959 39.224 132.849 39.796L131.661 46H129.835L131.001 39.862C131.089 39.444 131.155 38.938 131.155 38.498C131.155 37.42 130.737 36.628 129.483 36.628C128.185 36.628 126.337 38.19 125.853 40.83L124.885 46ZM134.393 49.85L134.921 48.42C135.559 48.816 136.615 49.124 137.737 49.124C139.519 49.124 140.927 48.2 141.565 45.318L141.917 43.734H141.851C140.927 45.252 139.629 46 138.155 46C136.021 46 134.921 44.196 134.921 42.304C134.899 38.696 137.561 35.11 141.675 35.11C142.907 35.11 144.249 35.462 145.085 35.858L143.457 44.658C143.017 46.902 142.423 48.464 141.301 49.41C140.245 50.334 138.815 50.598 137.583 50.598C136.285 50.598 135.075 50.29 134.393 49.85ZM142.401 40.478L143.083 36.936C142.753 36.782 142.093 36.584 141.323 36.584C138.661 36.584 136.835 39.356 136.813 41.996C136.813 43.162 137.231 44.548 138.859 44.548C140.421 44.548 142.027 42.568 142.401 40.478ZM38.4227 76.494L38.9287 75.152C39.4347 75.46 40.3587 75.812 41.2167 75.812C42.4487 75.812 43.2407 75.02 43.2407 74.074C43.2407 73.238 42.8667 72.732 41.7667 72.116C40.5347 71.434 39.8527 70.488 39.8527 69.41C39.8527 67.54 41.4587 66.11 43.7027 66.11C44.6707 66.11 45.5287 66.374 45.9247 66.638L45.4187 68.024C45.0447 67.804 44.3627 67.54 43.5707 67.54C42.4707 67.54 41.6787 68.222 41.6787 69.146C41.6787 69.916 42.1847 70.4 43.1307 70.928C44.3187 71.61 45.1327 72.534 45.1327 73.722C45.1327 75.966 43.3067 77.242 41.0627 77.242C39.9187 77.22 38.9067 76.868 38.4227 76.494ZM53.0977 66.11C55.9797 66.11 57.2557 68.288 57.2557 70.554C57.2557 73.832 54.9237 77.242 51.3597 77.242C48.6977 77.242 47.2017 75.262 47.2017 72.864C47.2017 69.366 49.6437 66.11 53.0977 66.11ZM52.8997 67.562C50.6117 67.562 49.0717 70.356 49.0937 72.798C49.0937 74.536 50.0397 75.79 51.6017 75.79C53.7577 75.79 55.3857 73.018 55.3857 70.532C55.3857 69.3 54.8137 67.562 52.8997 67.562ZM60.3239 77H58.5418L59.9718 69.454C60.1919 68.266 60.3459 67.232 60.4558 66.352H62.0619L61.7759 68.354H61.8418C62.8319 66.88 64.1739 66.11 65.5819 66.11C67.2099 66.11 67.9799 67.144 68.0679 68.486C69.0139 66.946 70.3779 66.132 71.9839 66.11C73.2159 66.11 74.5579 66.902 74.5579 68.904C74.5579 69.41 74.4919 70.114 74.3819 70.708L73.1939 77H71.4119L72.5559 70.862C72.6439 70.466 72.7099 69.916 72.7099 69.476C72.7099 68.354 72.2919 67.628 71.1039 67.628C69.7839 67.628 68.2219 69.168 67.7819 71.544L66.7479 77H64.9879L66.1759 70.752C66.2639 70.29 66.3079 69.872 66.3079 69.454C66.3079 68.552 66.0659 67.628 64.7239 67.628C63.3819 67.628 61.7319 69.388 61.3139 71.654L60.3239 77ZM83.7234 75.02L83.9874 76.384C83.1954 76.846 81.8974 77.242 80.4674 77.242C77.6514 77.242 76.4194 75.306 76.4194 72.952C76.4194 69.74 78.7954 66.11 82.2274 66.11C84.2514 66.11 85.3514 67.32 85.3514 68.838C85.3514 71.632 82.2054 72.38 78.2674 72.314C78.1794 72.776 78.2454 73.766 78.4874 74.338C78.9054 75.284 79.7634 75.768 80.8634 75.768C82.1174 75.768 83.0634 75.372 83.7234 75.02ZM83.5914 68.904V68.882C83.5914 68.024 82.9314 67.54 81.9634 67.54C80.2254 67.54 78.9274 69.234 78.4874 70.906C81.3474 70.928 83.5914 70.554 83.5914 68.904ZM89.0722 64.394L90.9862 63.8L90.5022 66.352H93.0542L92.7682 67.782H90.2162L89.2262 72.952C89.1162 73.546 89.0282 74.096 89.0282 74.646C89.0282 75.284 89.3362 75.68 90.0402 75.68C90.3482 75.68 90.6562 75.658 90.8982 75.592L90.8102 77.044C90.4802 77.154 89.9302 77.242 89.4022 77.242C87.7742 77.242 87.1582 76.252 87.1582 75.174C87.1582 74.558 87.2242 73.942 87.3782 73.172L88.4342 67.782H86.8942L87.1802 66.352H88.6982L89.0722 64.394ZM95.0007 77H93.1747L96.1447 61.38H97.9707L96.6507 68.244H96.6947C97.5967 66.946 98.8947 66.11 100.501 66.11C101.711 66.11 103.141 66.858 103.141 68.97C103.141 69.542 103.075 70.224 102.965 70.774L101.777 77H99.9507L101.139 70.862C101.205 70.466 101.271 69.982 101.271 69.388C101.271 68.398 100.809 67.628 99.6207 67.628C98.2127 67.628 96.4307 69.278 95.9907 71.676L95.0007 77ZM106.753 77H104.927L106.973 66.352H108.799L106.753 77ZM108.359 64.526H108.337C107.721 64.526 107.303 64.042 107.303 63.382C107.325 62.678 107.853 62.15 108.513 62.15C109.173 62.15 109.591 62.634 109.591 63.294C109.569 64.02 109.063 64.526 108.359 64.526ZM111.78 77H109.954L111.384 69.454C111.626 68.266 111.758 67.232 111.89 66.352H113.518L113.254 68.442H113.298C114.244 66.946 115.674 66.11 117.236 66.11C118.512 66.11 119.942 66.836 119.942 69.08C119.942 69.542 119.854 70.224 119.744 70.796L118.556 77H116.73L117.896 70.862C117.984 70.444 118.05 69.938 118.05 69.498C118.05 68.42 117.632 67.628 116.378 67.628C115.08 67.628 113.232 69.19 112.748 71.83L111.78 77ZM121.288 80.85L121.816 79.42C122.454 79.816 123.51 80.124 124.632 80.124C126.414 80.124 127.822 79.2 128.46 76.318L128.812 74.734H128.746C127.822 76.252 126.524 77 125.05 77C122.916 77 121.816 75.196 121.816 73.304C121.794 69.696 124.456 66.11 128.57 66.11C129.802 66.11 131.144 66.462 131.98 66.858L130.352 75.658C129.912 77.902 129.318 79.464 128.196 80.41C127.14 81.334 125.71 81.598 124.478 81.598C123.18 81.598 121.97 81.29 121.288 80.85ZM129.296 71.478L129.978 67.936C129.648 67.782 128.988 67.584 128.218 67.584C125.556 67.584 123.73 70.356 123.708 72.996C123.708 74.162 124.126 75.548 125.754 75.548C127.316 75.548 128.922 73.568 129.296 71.478ZM53.0967 108H51.4027C51.4027 107.362 51.5127 106.35 51.6447 105.25H51.6007C50.4347 107.45 48.9827 108.242 47.4647 108.242C45.5947 108.242 44.4067 106.746 44.4067 104.722C44.4067 101.026 47.1347 97.11 51.7767 97.11C52.7887 97.11 53.9107 97.286 54.6367 97.528L53.5587 103.072C53.2067 104.92 53.0527 106.812 53.0967 108ZM51.9747 101.928L52.5907 98.716C52.3267 98.65 51.9307 98.562 51.3147 98.562C48.5647 98.562 46.3207 101.444 46.2987 104.392C46.2987 105.58 46.7167 106.746 48.1247 106.746C49.6427 106.746 51.4467 104.766 51.9747 101.928ZM57.6168 108H55.8348L57.2648 100.454C57.4848 99.266 57.6388 98.232 57.7488 97.352H59.3548L59.0688 99.354H59.1348C60.1248 97.88 61.4668 97.11 62.8748 97.11C64.5028 97.11 65.2728 98.144 65.3608 99.486C66.3068 97.946 67.6708 97.132 69.2768 97.11C70.5088 97.11 71.8508 97.902 71.8508 99.904C71.8508 100.41 71.7848 101.114 71.6748 101.708L70.4868 108H68.7048L69.8488 101.862C69.9368 101.466 70.0028 100.916 70.0028 100.476C70.0028 99.354 69.5848 98.628 68.3968 98.628C67.0768 98.628 65.5148 100.168 65.0748 102.544L64.0408 108H62.2808L63.4688 101.752C63.5568 101.29 63.6008 100.872 63.6008 100.454C63.6008 99.552 63.3588 98.628 62.0168 98.628C60.6748 98.628 59.0248 100.388 58.6068 102.654L57.6168 108ZM82.3584 108H80.6644C80.6644 107.362 80.7744 106.35 80.9064 105.25H80.8624C79.6964 107.45 78.2444 108.242 76.7264 108.242C74.8564 108.242 73.6684 106.746 73.6684 104.722C73.6684 101.026 76.3964 97.11 81.0384 97.11C82.0504 97.11 83.1724 97.286 83.8984 97.528L82.8204 103.072C82.4684 104.92 82.3144 106.812 82.3584 108ZM81.2364 101.928L81.8524 98.716C81.5884 98.65 81.1924 98.562 80.5764 98.562C77.8264 98.562 75.5824 101.444 75.5604 104.392C75.5604 105.58 75.9784 106.746 77.3864 106.746C78.9044 106.746 80.7084 104.766 81.2364 101.928ZM84.0185 108L84.2165 106.878L89.3865 101.136C90.2885 100.146 90.8825 99.596 91.5865 98.914L91.6085 98.848H86.1525L86.4385 97.352H94.0945L93.8525 98.562L88.7485 104.238C87.8025 105.272 87.2305 105.844 86.5485 106.438V106.504H92.4445L92.1585 108H84.0185ZM96.0534 108H94.2274L96.2734 97.352H98.0994L96.0534 108ZM97.6594 95.526H97.6374C97.0214 95.526 96.6034 95.042 96.6034 94.382C96.6254 93.678 97.1534 93.15 97.8134 93.15C98.4734 93.15 98.8914 93.634 98.8914 94.294C98.8694 95.02 98.3634 95.526 97.6594 95.526ZM101.081 108H99.2547L100.685 100.454C100.927 99.266 101.059 98.232 101.191 97.352H102.819L102.555 99.442H102.599C103.545 97.946 104.975 97.11 106.537 97.11C107.813 97.11 109.243 97.836 109.243 100.08C109.243 100.542 109.155 101.224 109.045 101.796L107.857 108H106.031L107.197 101.862C107.285 101.444 107.351 100.938 107.351 100.498C107.351 99.42 106.933 98.628 105.679 98.628C104.381 98.628 102.533 100.19 102.049 102.83L101.081 108ZM110.589 111.85L111.117 110.42C111.755 110.816 112.811 111.124 113.933 111.124C115.715 111.124 117.123 110.2 117.761 107.318L118.113 105.734H118.047C117.123 107.252 115.825 108 114.351 108C112.217 108 111.117 106.196 111.117 104.304C111.095 100.696 113.757 97.11 117.871 97.11C119.103 97.11 120.445 97.462 121.281 97.858L119.653 106.658C119.213 108.902 118.619 110.464 117.497 111.41C116.441 112.334 115.011 112.598 113.779 112.598C112.481 112.598 111.271 112.29 110.589 111.85ZM118.597 102.478L119.279 98.936C118.949 98.782 118.289 98.584 117.519 98.584C114.857 98.584 113.031 101.356 113.009 103.996C113.009 105.162 113.427 106.548 115.055 106.548C116.617 106.548 118.223 104.568 118.597 102.478ZM125.074 103.732H123.6L125.338 93.172H127.406L125.074 103.732ZM123.644 108.242H123.622C122.918 108.242 122.434 107.67 122.434 106.966C122.434 106.152 123.006 105.492 123.82 105.492C124.546 105.492 125.03 106.064 125.03 106.79C125.03 107.604 124.458 108.242 123.644 108.242Z" fill="black"/>
</svg>
