<svg width="632" height="557" viewBox="0 0 632 557" fill="none" xmlns="http://www.w3.org/2000/svg">
<path d="M148.396 85.1494C231.472 60.3552 316.869 46.9611 399.184 19.045C433.839 7.30251 471.075 -7.1188 504.47 4.26115C532.602 13.8485 551.47 39.7505 574.58 58.4821C594.408 74.555 619.319 87.365 628.003 112.199C637.887 140.418 622.961 172.261 610.655 200.903C581.083 269.766 564.876 343.786 532.002 411.18C499.127 478.573 443.463 541.858 373.093 554.466C327.373 562.664 282.274 548.505 236.514 546.672C218.366 545.947 199.378 547.034 183.091 539.542C171.066 534.023 161.562 524.254 152.418 514.566C94.7126 453.376 -46.8085 324.914 -58.3935 234.901C-68.958 152.825 77.8454 106.197 148.396 85.1494Z" fill="#FEA4A4"/>
</svg>
